<?xml version="1.0" encoding="UTF-8"?>
<!DOCTYPE svg PUBLIC "-//W3C//DTD SVG 1.1//EN" "http://www.w3.org/Graphics/SVG/1.1/DTD/svg11.dtd">
<!-- Creator: CorelDRAW 2019 (64-Bit) -->
<svg xmlns="http://www.w3.org/2000/svg" xml:space="preserve" width="200px" height="144px" version="1.1" style="shape-rendering:geometricPrecision; text-rendering:geometricPrecision; image-rendering:optimizeQuality; fill-rule:evenodd; clip-rule:evenodd"
viewBox="0 0 11.24 8.11"
 xmlns:xlink="http://www.w3.org/1999/xlink">
 <defs>
  <style type="text/css">
   <![CDATA[
    .fil5 {fill:#FEFEFE}
    .fil3 {fill:#727376}
    .fil2 {fill:#565658}
    .fil1 {fill:#F58634}
    .fil0 {fill:#F26F35}
    .fil4 {fill:#727376;fill-rule:nonzero}
   ]]>
  </style>
 </defs>
 <g id="Layer_x0020_1">
  <metadata id="CorelCorpID_0Corel-Layer"/>
  <g id="_2251172392016">
   <polygon class="fil0" points="6.95,2.32 5.12,0 7.19,1.86 "/>
   <polygon class="fil1" points="6.95,2.32 5.12,0 1.99,3.97 "/>
   <polygon class="fil2" points="7.08,2.48 7.34,1.98 8.74,3.24 8.29,4.01 "/>
   <polygon class="fil3" points="7.08,2.48 1.77,4.24 0.89,5.35 8.29,4.01 "/>
   <polygon class="fil1" points="0.72,5.58 0,6.48 10.25,6.48 8.43,4.18 "/>
   <polygon class="fil0" points="8.89,3.38 11.24,5.49 10.25,6.48 8.43,4.18 "/>
   <path class="fil4" d="M0.39 8.11l-0.39 -0.92 0.28 0 0.32 0.8 -0.16 0 0.33 -0.8 0.25 0 -0.38 0.92 -0.25 0zm0.92 -0.57l0.42 0 0 0.2 -0.42 0 0 -0.2zm0.02 0.37l0.47 0 0 0.2 -0.72 0 0 -0.92 0.7 0 0 0.2 -0.45 0 0 0.52zm0.85 -0.37l0.41 0 0 0.2 -0.41 0 0 -0.2zm0.01 0.37l0.48 0 0 0.2 -0.73 0 0 -0.92 0.71 0 0 0.2 -0.46 0 0 0.52zm1.6 -0.72l0.25 0 0 0.92 -0.25 0 0 -0.92zm-0.35 0.92l-0.26 0 0 -0.92 0.26 0 0 0.92zm0.36 -0.36l-0.38 0 0 -0.22 0.38 0 0 0.22zm0.66 -0.21l0.41 0 0 0.2 -0.41 0 0 -0.2zm0.01 0.37l0.47 0 0 0.2 -0.72 0 0 -0.92 0.71 0 0 0.2 -0.46 0 0 0.52zm0.51 0.2l0.4 -0.92 0.25 0 0.4 0.92 -0.27 0 -0.31 -0.79 0.1 0 -0.31 0.79 -0.26 0zm0.22 -0.18l0.06 -0.19 0.44 0 0.07 0.19 -0.57 0zm0.9 0.18l0 -0.92 0.25 0 0 0.71 0.43 0 0 0.21 -0.68 0zm0.89 0l0 -0.72 -0.27 0 0 -0.2 0.8 0 0 0.2 -0.27 0 0 0.72 -0.26 0zm1.23 -0.92l0.26 0 0 0.92 -0.26 0 0 -0.92zm-0.35 0.92l-0.25 0 0 -0.92 0.25 0 0 0.92zm0.37 -0.36l-0.38 0 0 -0.22 0.38 0 0 0.22zm0.61 0.36l0 -0.72 -0.28 0 0 -0.2 0.81 0 0 0.2 -0.27 0 0 0.72 -0.26 0zm0.86 -0.57l0.42 0 0 0.2 -0.42 0 0 -0.2zm0.02 0.37l0.47 0 0 0.2 -0.72 0 0 -0.92 0.7 0 0 0.2 -0.45 0 0 0.52zm0.84 0l-0.01 -0.3 0.38 -0.42 0.28 0 -0.38 0.43 -0.14 0.15 -0.13 0.14zm-0.23 0.2l0 -0.92 0.25 0 0 0.92 -0.25 0zm0.61 0l-0.3 -0.38 0.17 -0.18 0.42 0.56 -0.29 0z"/>
   <polygon class="fil5" points="1.99,3.97 6.95,2.32 7.08,2.48 1.77,4.24 "/>
   <polygon class="fil5" points="0.89,5.35 8.29,4.01 8.43,4.18 0.72,5.58 "/>
   <polygon class="fil5" points="8.29,4.01 8.74,3.24 8.89,3.38 8.43,4.18 "/>
   <polygon class="fil5" points="7.34,1.98 7.08,2.48 6.95,2.32 7.19,1.86 "/>
  </g>
 </g>
</svg>
